<svg width="146" height="38" viewBox="0 0 146 38" fill="none" xmlns="http://www.w3.org/2000/svg">
<circle cx="17" cy="17" r="14.5" fill="white" stroke="#1779FF" stroke-width="5"/>
<circle cx="8.28205" cy="8.28205" r="5.78205" transform="matrix(-1 0 0 1 25.282 8.71796)" fill="white" stroke="#1779FF" stroke-width="5"/>
<path d="M16.688 20.1752L24.238 33.2521H9.13808L16.688 20.1752Z" fill="#1779FF" stroke="white" stroke-width="2"/>
<path d="M40.448 27C40.288 27 40.152 26.944 40.04 26.832C39.928 26.72 39.872 26.584 39.872 26.424V10.776C39.872 10.616 39.928 10.48 40.04 10.368C40.152 10.256 40.288 10.2 40.448 10.2H42.704C42.88 10.2 43.016 10.256 43.112 10.368C43.224 10.48 43.28 10.616 43.28 10.776V26.424C43.28 26.584 43.224 26.72 43.112 26.832C43.016 26.944 42.88 27 42.704 27H40.448Z" fill="#333333"/>
<path d="M47.3319 27C47.1719 27 47.0359 26.944 46.9239 26.832C46.8119 26.72 46.7559 26.584 46.7559 26.424V15.096C46.7559 14.936 46.8119 14.8 46.9239 14.688C47.0359 14.576 47.1719 14.52 47.3319 14.52H49.2039C49.3639 14.52 49.4999 14.576 49.6119 14.688C49.7239 14.8 49.7799 14.936 49.7799 15.096V15.912C50.1159 15.464 50.5639 15.088 51.1239 14.784C51.6999 14.464 52.3799 14.296 53.1639 14.28C54.9879 14.248 56.2599 14.96 56.9799 16.416C57.3479 15.776 57.8759 15.264 58.5639 14.88C59.2679 14.48 60.0439 14.28 60.8919 14.28C61.7239 14.28 62.4759 14.472 63.1479 14.856C63.8359 15.24 64.3719 15.824 64.7559 16.608C65.1559 17.376 65.3559 18.352 65.3559 19.536V26.424C65.3559 26.584 65.2999 26.72 65.1879 26.832C65.0759 26.944 64.9399 27 64.7799 27H62.8119C62.6519 27 62.5159 26.944 62.4039 26.832C62.2919 26.72 62.2359 26.584 62.2359 26.424V19.728C62.2359 19.008 62.1319 18.44 61.9239 18.024C61.7159 17.592 61.4359 17.288 61.0839 17.112C60.7319 16.936 60.3399 16.848 59.9079 16.848C59.5559 16.848 59.2039 16.936 58.8519 17.112C58.4999 17.288 58.2119 17.592 57.9879 18.024C57.7639 18.44 57.6519 19.008 57.6519 19.728V26.424C57.6519 26.584 57.5959 26.72 57.4839 26.832C57.3719 26.944 57.2359 27 57.0759 27H55.1079C54.9319 27 54.7879 26.944 54.6759 26.832C54.5799 26.72 54.5319 26.584 54.5319 26.424V19.728C54.5319 19.008 54.4199 18.44 54.1959 18.024C53.9719 17.592 53.6839 17.288 53.3319 17.112C52.9799 16.936 52.6039 16.848 52.2039 16.848C51.8359 16.848 51.4759 16.944 51.1239 17.136C50.7719 17.312 50.4839 17.608 50.2599 18.024C50.0359 18.44 49.9239 19.008 49.9239 19.728V26.424C49.9239 26.584 49.8679 26.72 49.7559 26.832C49.6439 26.944 49.5079 27 49.3479 27H47.3319Z" fill="#333333"/>
<path d="M69.0121 31.56C68.8521 31.56 68.7161 31.504 68.6041 31.392C68.4921 31.28 68.4361 31.144 68.4361 30.984V15.096C68.4361 14.936 68.4921 14.8 68.6041 14.688C68.7161 14.576 68.8521 14.52 69.0121 14.52H70.9081C71.0841 14.52 71.2201 14.576 71.3161 14.688C71.4281 14.8 71.4841 14.936 71.4841 15.096V16.056C71.8681 15.544 72.3721 15.12 72.9961 14.784C73.6201 14.448 74.3961 14.28 75.3241 14.28C76.1721 14.28 76.9081 14.416 77.5321 14.688C78.1561 14.96 78.6761 15.352 79.0921 15.864C79.5081 16.36 79.8281 16.952 80.0521 17.64C80.2761 18.328 80.4041 19.088 80.4361 19.92C80.4521 20.192 80.4601 20.472 80.4601 20.76C80.4601 21.048 80.4521 21.336 80.4361 21.624C80.4201 22.424 80.3001 23.168 80.0761 23.856C79.8521 24.528 79.5241 25.12 79.0921 25.632C78.6761 26.128 78.1561 26.52 77.5321 26.808C76.9081 27.096 76.1721 27.24 75.3241 27.24C74.4601 27.24 73.7241 27.088 73.1161 26.784C72.5081 26.464 72.0121 26.048 71.6281 25.536V30.984C71.6281 31.144 71.5721 31.28 71.4601 31.392C71.3641 31.504 71.2281 31.56 71.0521 31.56H69.0121ZM74.4361 24.672C75.1241 24.672 75.6601 24.528 76.0441 24.24C76.4281 23.936 76.7001 23.544 76.8601 23.064C77.0361 22.584 77.1401 22.056 77.1721 21.48C77.2041 21 77.2041 20.52 77.1721 20.04C77.1401 19.464 77.0361 18.936 76.8601 18.456C76.7001 17.976 76.4281 17.592 76.0441 17.304C75.6601 17 75.1241 16.848 74.4361 16.848C73.7801 16.848 73.2441 17 72.8281 17.304C72.4281 17.608 72.1321 18 71.9401 18.48C71.7641 18.944 71.6601 19.424 71.6281 19.92C71.6121 20.208 71.6041 20.512 71.6041 20.832C71.6041 21.152 71.6121 21.464 71.6281 21.768C71.6441 22.248 71.7561 22.712 71.9641 23.16C72.1721 23.592 72.4761 23.952 72.8761 24.24C73.2761 24.528 73.7961 24.672 74.4361 24.672Z" fill="#333333"/>
<path d="M88.6743 27.24C87.3943 27.24 86.3143 27.016 85.4343 26.568C84.5703 26.12 83.9063 25.488 83.4423 24.672C82.9943 23.856 82.7383 22.904 82.6743 21.816C82.6583 21.528 82.6503 21.176 82.6503 20.76C82.6503 20.344 82.6583 19.992 82.6743 19.704C82.7383 18.6 83.0023 17.648 83.4663 16.848C83.9463 16.032 84.6183 15.4 85.4823 14.952C86.3623 14.504 87.4263 14.28 88.6743 14.28C89.9223 14.28 90.9783 14.504 91.8423 14.952C92.7223 15.4 93.3943 16.032 93.8583 16.848C94.3383 17.648 94.6103 18.6 94.6743 19.704C94.6903 19.992 94.6983 20.344 94.6983 20.76C94.6983 21.176 94.6903 21.528 94.6743 21.816C94.6103 22.904 94.3463 23.856 93.8823 24.672C93.4343 25.488 92.7703 26.12 91.8903 26.568C91.0263 27.016 89.9543 27.24 88.6743 27.24ZM88.6743 24.864C89.5223 24.864 90.1783 24.6 90.6423 24.072C91.1063 23.528 91.3623 22.736 91.4103 21.696C91.4263 21.456 91.4343 21.144 91.4343 20.76C91.4343 20.376 91.4263 20.064 91.4103 19.824C91.3623 18.8 91.1063 18.016 90.6423 17.472C90.1783 16.928 89.5223 16.656 88.6743 16.656C87.8263 16.656 87.1703 16.928 86.7063 17.472C86.2423 18.016 85.9863 18.8 85.9383 19.824C85.9223 20.064 85.9143 20.376 85.9143 20.76C85.9143 21.144 85.9223 21.456 85.9383 21.696C85.9863 22.736 86.2423 23.528 86.7063 24.072C87.1703 24.6 87.8263 24.864 88.6743 24.864Z" fill="#333333"/>
<path d="M97.9334 27C97.7734 27 97.6374 26.944 97.5254 26.832C97.4134 26.72 97.3574 26.584 97.3574 26.424V15.12C97.3574 14.944 97.4134 14.8 97.5254 14.688C97.6374 14.576 97.7734 14.52 97.9334 14.52H99.8774C100.037 14.52 100.173 14.576 100.285 14.688C100.413 14.8 100.477 14.944 100.477 15.12V16.104C100.845 15.592 101.317 15.2 101.893 14.928C102.485 14.656 103.165 14.52 103.933 14.52H104.917C105.093 14.52 105.229 14.576 105.325 14.688C105.437 14.8 105.493 14.936 105.493 15.096V16.824C105.493 16.984 105.437 17.12 105.325 17.232C105.229 17.344 105.093 17.4 104.917 17.4H103.045C102.277 17.4 101.677 17.616 101.245 18.048C100.829 18.48 100.621 19.072 100.621 19.824V26.424C100.621 26.584 100.565 26.72 100.453 26.832C100.341 26.944 100.197 27 100.021 27H97.9334Z" fill="#333333"/>
<path d="M113.005 27C112.045 27 111.237 26.832 110.581 26.496C109.925 26.16 109.437 25.664 109.117 25.008C108.797 24.336 108.637 23.504 108.637 22.512V17.064H106.741C106.581 17.064 106.445 17.008 106.333 16.896C106.221 16.784 106.165 16.648 106.165 16.488V15.096C106.165 14.936 106.221 14.8 106.333 14.688C106.445 14.576 106.581 14.52 106.741 14.52H108.637V10.536C108.637 10.376 108.685 10.24 108.781 10.128C108.893 10.016 109.037 9.95999 109.213 9.95999H111.157C111.317 9.95999 111.453 10.016 111.565 10.128C111.677 10.24 111.733 10.376 111.733 10.536V14.52H114.733C114.893 14.52 115.029 14.576 115.141 14.688C115.253 14.8 115.309 14.936 115.309 15.096V16.488C115.309 16.648 115.253 16.784 115.141 16.896C115.029 17.008 114.893 17.064 114.733 17.064H111.733V22.272C111.733 22.928 111.845 23.44 112.069 23.808C112.309 24.176 112.717 24.36 113.293 24.36H114.949C115.109 24.36 115.245 24.416 115.357 24.528C115.469 24.64 115.525 24.776 115.525 24.936V26.424C115.525 26.584 115.469 26.72 115.357 26.832C115.245 26.944 115.109 27 114.949 27H113.005Z" fill="#333333"/>
<path d="M119.574 27C119.414 27 119.278 26.944 119.166 26.832C119.054 26.72 118.998 26.584 118.998 26.424V17.064H117.054C116.894 17.064 116.758 17.008 116.646 16.896C116.534 16.784 116.478 16.648 116.478 16.488V15.096C116.478 14.936 116.534 14.8 116.646 14.688C116.758 14.576 116.894 14.52 117.054 14.52H118.998V13.536C118.998 12.576 119.174 11.784 119.526 11.16C119.878 10.52 120.398 10.04 121.086 9.71999C121.774 9.39999 122.646 9.23999 123.702 9.23999H125.334C125.51 9.23999 125.646 9.29599 125.742 9.40799C125.854 9.51999 125.91 9.65599 125.91 9.81599V11.208C125.91 11.368 125.854 11.504 125.742 11.616C125.646 11.728 125.51 11.784 125.334 11.784H123.798C123.158 11.784 122.718 11.944 122.478 12.264C122.238 12.584 122.118 13.048 122.118 13.656V14.52H125.094C125.27 14.52 125.406 14.576 125.502 14.688C125.614 14.8 125.67 14.936 125.67 15.096V16.488C125.67 16.648 125.614 16.784 125.502 16.896C125.406 17.008 125.27 17.064 125.094 17.064H122.118V26.424C122.118 26.584 122.062 26.72 121.95 26.832C121.838 26.944 121.702 27 121.542 27H119.574Z" fill="#333333"/>
<path d="M132.224 27.24C131.248 27.24 130.4 27.024 129.68 26.592C128.976 26.144 128.432 25.52 128.048 24.72C127.664 23.904 127.472 22.944 127.472 21.84V15.096C127.472 14.936 127.528 14.8 127.64 14.688C127.752 14.576 127.888 14.52 128.048 14.52H130.16C130.336 14.52 130.472 14.576 130.568 14.688C130.68 14.8 130.736 14.936 130.736 15.096V21.696C130.736 23.68 131.608 24.672 133.352 24.672C134.184 24.672 134.84 24.408 135.32 23.88C135.816 23.352 136.064 22.624 136.064 21.696V15.096C136.064 14.936 136.12 14.8 136.232 14.688C136.344 14.576 136.48 14.52 136.64 14.52H138.752C138.912 14.52 139.048 14.576 139.16 14.688C139.272 14.8 139.328 14.936 139.328 15.096V26.424C139.328 26.584 139.272 26.72 139.16 26.832C139.048 26.944 138.912 27 138.752 27H136.808C136.632 27 136.488 26.944 136.376 26.832C136.28 26.72 136.232 26.584 136.232 26.424V25.44C135.8 26 135.264 26.44 134.624 26.76C133.984 27.08 133.184 27.24 132.224 27.24Z" fill="#333333"/>
<path d="M143.098 27C142.938 27 142.802 26.944 142.69 26.832C142.578 26.72 142.522 26.584 142.522 26.424V10.536C142.522 10.376 142.578 10.24 142.69 10.128C142.802 10.016 142.938 9.95999 143.098 9.95999H145.09C145.25 9.95999 145.386 10.016 145.498 10.128C145.61 10.24 145.666 10.376 145.666 10.536V26.424C145.666 26.584 145.61 26.72 145.498 26.832C145.386 26.944 145.25 27 145.09 27H143.098Z" fill="#333333"/>
</svg>
